<?xml version="1.0" encoding="UTF-8"?>
<svg xmlns="http://www.w3.org/2000/svg" viewBox="0 0 29.39 45">
  <defs>
    <style>
      .cls-1 {
        stroke: #6485c1;
      }

      .cls-1, .cls-2, .cls-3, .cls-4, .cls-5, .cls-6, .cls-7, .cls-8, .cls-9, .cls-10 {
        stroke-linecap: round;
        stroke-linejoin: round;
      }

      .cls-1, .cls-2, .cls-3, .cls-4, .cls-5, .cls-6, .cls-8, .cls-9, .cls-10 {
        stroke-width: .53px;
      }

      .cls-1, .cls-3, .cls-4, .cls-5, .cls-6, .cls-7, .cls-8, .cls-9, .cls-10 {
        fill: none;
      }

      .cls-2 {
        fill: #fbc166;
      }

      .cls-2, .cls-8 {
        stroke: #6486bf;
      }

      .cls-11 {
        fill: #fcfdff;
      }

      .cls-12 {
        fill: #6485c0;
      }

      .cls-13 {
        fill: #f15a24;
      }

      .cls-13, .cls-14, .cls-15 {
        stroke: #000;
        stroke-miterlimit: 10;
      }

      .cls-13, .cls-15 {
        stroke-width: .25px;
      }

      .cls-14 {
        fill: #0071bc;
        stroke-width: .5px;
      }

      .cls-3 {
        stroke: #6284bf;
      }

      .cls-4 {
        stroke: #6485c0;
      }

      .cls-16 {
        opacity: .1;
      }

      .cls-16, .cls-15 {
        fill: #e6e6e6;
      }

      .cls-5 {
        stroke: #6385c1;
      }

      .cls-6 {
        stroke: #6385c0;
      }

      .cls-7 {
        stroke-width: .45px;
      }

      .cls-7, .cls-9 {
        stroke: #6486c1;
      }

      .cls-17 {
        fill: #fefefe;
      }

      .cls-10 {
        stroke: #6284c0;
      }
    </style>
  </defs>
  <g id="Taskicon">
    <rect id="Board" class="cls-14" x=".25" y="5.8" width="28.89" height="38.94" rx="2" ry="2"/>
    <path id="Board-2" data-name="Board" class="cls-15" d="M2.65,5.97h24.1v34.17c0,1.1-.9,2-2,2H4.65c-1.1,0-2-.9-2-2V5.97h0Z"/>
    <path class="cls-13" d="M7.32,7.58h14.75c.77,0,1.4-.63,1.4-1.4v-1.11c0-.77-.73-1.11-1.5-1.11l-2.49-.29c-.59,0-1.24-.26-1.43-.82-.35-1.04-1.12-2.69-3.33-2.72-1.85-.03-2.75,1.78-3.2,2.79-.23.51-.81.59-1.37.59l-2.77.36c-.77,0-1.47.27-1.47,1.04v1.28c0,.77.63,1.4,1.4,1.4Z"/>
    <path class="cls-16" d="M9.26,7.04h10.87c.57,0,1.03-.46,1.03-1.03v-.82c0-.57-.54-.82-1.11-.82l-1.83-.22c-.43,0-.91-.19-1.05-.6-.26-.76-.83-1.98-2.45-2.01-1.36-.02-2.03,1.31-2.36,2.06-.17.38-.6.43-1.01.43l-2.04.26c-.57,0-1.08.2-1.08.77v.94c0,.57.46,1.03,1.03,1.03Z"/>
  </g>
  <g id="bulb">
    <g id="Generative_Object" data-name="Generative Object">
      <g>
        <path class="cls-2" d="M14.43,16.84c2.22-.09,4.21,1.08,5.3,2.99,1.31,2.3.91,5.22-.99,7.07-.53.52-.87,1.08-1.07,1.79-.17.61-.28,1.22-.36,1.86-.02.17-.15.29-.31.29h-1.31s-3.33,0-3.33,0c-.22,0-.34-.18-.35-.38-.03-.58-.2-1.14-.31-1.69-.19-.9-.72-1.48-1.3-2.11-2.11-2.29-2.04-5.71.05-7.99,1.03-1.12,2.48-1.79,3.99-1.85Z"/>
        <path class="cls-11" d="M13.06,24.58c.42-.06.82.28.88.72.02.17.01.32.01.47l-.04.03c-.43,0-.88-.08-1.11-.5-.08-.15-.1-.32-.05-.43.06-.12.17-.27.3-.28Z"/>
        <path class="cls-17" d="M16.09,24.57c.15-.05.33.05.43.18s.12.3.04.47c-.27.58-.75.54-1.16.55h-.03c0-.6.08-1,.73-1.2Z"/>
      </g>
      <g>
        <line class="cls-4" x1="4.56" y1="22.68" x2="6.91" y2="22.68"/>
        <line class="cls-10" x1="7.45" y1="15.45" x2="9.19" y2="17.2"/>
        <path class="cls-6" d="M9.28,28.08l-1.59,1.6c-.09.09-.18.17-.17.28"/>
        <path class="cls-8" d="M13.99,30.65l-.04-4.89c0-.15.01-.3-.01-.47-.06-.43-.47-.77-.88-.72-.13.02-.24.16-.3.28-.05.12-.03.29.05.43.23.42.68.51,1.11.5l1.48-.03c.42,0,.89.03,1.16-.55.08-.18.05-.34-.04-.47s-.27-.22-.43-.18c-.65.2-.73.6-.73,1.19v4.89"/>
        <line class="cls-5" x1="22.41" y1="22.68" x2="24.84" y2="22.68"/>
        <line class="cls-7" x1="12.25" y1="32.03" x2="17.11" y2="32.01"/>
        <line class="cls-1" x1="17.15" y1="33.12" x2="12.25" y2="33.12"/>
        <line class="cls-9" x1="12.37" y1="34.27" x2="16.98" y2="34.28"/>
        <path class="cls-12" d="M15.8,35.48c-.32.34-.49.26-.82.34-.42.06-1.03.05-1.36-.33-.12-.17,0-.34.17-.37.21.06.39.17.6.19.18.02.6,0,.81-.07.08,0,.2-.1.13-.03.16-.3.63-.03.46.26h0Z"/>
        <line class="cls-4" x1="14.68" y1="12.52" x2="14.68" y2="14.91"/>
        <line class="cls-6" x1="21.99" y1="15.38" x2="20.14" y2="17.18"/>
        <line class="cls-3" x1="21.98" y1="29.99" x2="20.24" y2="28.24"/>
      </g>
    </g>
  </g>
</svg>